<?xml version="1.0" encoding="UTF-8"?>
<svg id="Capa_1" data-name="Capa 1" xmlns="http://www.w3.org/2000/svg" xmlns:xlink="http://www.w3.org/1999/xlink" viewBox="0 0 248.64 50.58">
  <defs>
    <style>
      .cls-1 {
        fill: url(#Degradado_sin_nombre_78-2);
      }

      .cls-2 {
        fill: url(#Degradado_sin_nombre_78-7);
      }

      .cls-3 {
        fill: url(#Degradado_sin_nombre_78-10);
      }

      .cls-4 {
        fill: url(#Degradado_sin_nombre_78-4);
      }

      .cls-5 {
        fill: url(#Degradado_sin_nombre_78-5);
      }

      .cls-6 {
        fill: url(#Degradado_sin_nombre_78-11);
      }

      .cls-7 {
        fill: url(#Degradado_sin_nombre_78-6);
      }

      .cls-8 {
        fill: url(#Degradado_sin_nombre_78);
      }

      .cls-9 {
        fill: url(#Degradado_sin_nombre_78-9);
      }

      .cls-10 {
        fill: url(#Degradado_sin_nombre_78-3);
      }

      .cls-11 {
        fill: url(#Degradado_sin_nombre_78-8);
      }
    </style>
    <radialGradient id="Degradado_sin_nombre_78" data-name="Degradado sin nombre 78" cx="147.45" cy="27.13" fx="147.45" fy="27.13" r="26.31" gradientUnits="userSpaceOnUse">
      <stop offset="0" stop-color="#ffef26"/>
      <stop offset=".02" stop-color="#fee921"/>
      <stop offset=".1" stop-color="#fdd70e"/>
      <stop offset=".19" stop-color="#fdcb03"/>
      <stop offset=".28" stop-color="#fdc800"/>
      <stop offset=".67" stop-color="#fdc800"/>
      <stop offset=".86" stop-color="#c3933a"/>
    </radialGradient>
    <radialGradient id="Degradado_sin_nombre_78-2" data-name="Degradado sin nombre 78" cx="235.66" cy="25.65" fx="235.66" fy="25.65" r="14.8" xlink:href="#Degradado_sin_nombre_78"/>
    <radialGradient id="Degradado_sin_nombre_78-3" data-name="Degradado sin nombre 78" cx="181.39" cy="25.13" fx="181.39" fy="25.13" r="15.28" xlink:href="#Degradado_sin_nombre_78"/>
    <radialGradient id="Degradado_sin_nombre_78-4" data-name="Degradado sin nombre 78" cx="46.7" cy="25.15" fx="46.7" fy="25.15" r="15.21" xlink:href="#Degradado_sin_nombre_78"/>
    <radialGradient id="Degradado_sin_nombre_78-5" data-name="Degradado sin nombre 78" cx="14.83" cy="25.38" fx="14.83" fy="25.38" r="15.7" xlink:href="#Degradado_sin_nombre_78"/>
    <radialGradient id="Degradado_sin_nombre_78-6" data-name="Degradado sin nombre 78" cx="98.49" cy="25.41" fx="98.49" fy="25.41" r="13.29" xlink:href="#Degradado_sin_nombre_78"/>
    <radialGradient id="Degradado_sin_nombre_78-7" data-name="Degradado sin nombre 78" cx="74.68" cy="25.42" fx="74.68" fy="25.42" r="12.96" xlink:href="#Degradado_sin_nombre_78"/>
    <radialGradient id="Degradado_sin_nombre_78-8" data-name="Degradado sin nombre 78" cx="210.27" cy="25.41" fx="210.27" fy="25.41" r="13.23" xlink:href="#Degradado_sin_nombre_78"/>
    <radialGradient id="Degradado_sin_nombre_78-9" data-name="Degradado sin nombre 78" cx="99.99" cy="3.37" fx="99.99" fy="3.37" r="3.71" xlink:href="#Degradado_sin_nombre_78"/>
    <radialGradient id="Degradado_sin_nombre_78-10" data-name="Degradado sin nombre 78" cx="240.07" cy="4.25" fx="240.07" fy="4.25" r="2.18" xlink:href="#Degradado_sin_nombre_78"/>
    <radialGradient id="Degradado_sin_nombre_78-11" data-name="Degradado sin nombre 78" cx="231.82" cy="4.28" fx="231.82" fy="4.28" r="2.18" xlink:href="#Degradado_sin_nombre_78"/>
  </defs>
  <path class="cls-8" d="M123.05,41.33c1.37-1.08,2.34-.52,2.9-2.45.96-3.33,1.35-8.39,1.83-11.97.49-3.6,1.77-10.36,1.54-13.66-.29-4.19-6.12-9.14-10.73-8.79-.06-.73-.04-.46.45-.55,9.01-1.56,12.83,5.14,16.18,11.62,3.04,5.89,5.55,12.05,8.52,17.98.4.81.16,1.62,1.2,1.95l12.09-26.49,1.18.08,4.53,27.86c1.07,4.23,2.75,9.04,7.02,11.29,1.95,1.02,4.34,1.62,6.58,1.5-.4.69-2.05.81-2.82.84-10.14.49-13.77-8.39-15.25-16.15-1.11-5.83-1.67-11.78-2.47-17.65l-12.35,25.13-12.65-25.69-2.38,21.64c0,.43.35,1.84.58,2.18.4.6,1.79.58,2.1,1.31h-8.04Z"/>
  <path class="cls-1" d="M222.77,9.5h4.17v20.81c0,.74.54,2.89.81,3.71,1.75,5.33,8.8,7.13,13.79,4.68,6.71-3.29,4.72-13.41,5.06-19.29l-.76-9.36.22-.49c.65-.06,2.33-.75,2.59.12-1.49,7.68,1.68,19.39-1.84,26.42-3.66,7.33-16.54,7.98-21.42,1.53-3.37-4.44-2.2-9.3-2.35-14.32-.11-3.83-.54-7.33-.26-11.16.06-.88-.04-1.77,0-2.65Z"/>
  <path class="cls-10" d="M195.68,41.33h-4.76l-4.14-10.43-13.07-.12-3.97,10.51-2.64.04,14.14-32.41,14.43,32.41ZM186.16,29.04l-6.25-13.96-5.65,13.83.74.42,11.16-.28Z"/>
  <path class="cls-4" d="M60.84,41.33h-4.32l-4.46-10.33c-.21-.31-.55-.26-.88-.29-3.85-.45-8.7.37-12.67.02.62.93-.45,1.63-.51,1.82-.83,2.32-1.55,4.41-2.38,6.78-.16.45-.02.92-.18,1.38-.27.79-2.12.68-2.88.63l13.84-32.4.81.64,13.63,31.76ZM39.71,29.32l10.72-.09.58-.35-5.79-13.8-1.96,4.62c-1.08,2.57-1.97,5.2-2.98,8.02-.08.24-1.03.52-.57,1.61Z"/>
  <path class="cls-5" d="M12.72,11.27c-5.22,2.12-7.69,8.45-8.13,13.45-.38,4.32,1.23,6.88,2.76,10.4.82.68,1.4,1.6,2.23,2.29,5.68,4.68,14.84,3.97,19.27-1.94.17-.09,1.6,3.01.23,3.13l.21.49c-.98-.35-1.14.4-1.29.47-15.86,7.2-32.61-3.02-26.84-20.01,3.25-9.57,15.92-13.33,25.11-8.76.41.2,2.77,1.61,2.88,1.78.39.58-.91,2.37-1.2,3.06-.99-.75-1.5-1.96-2.43-2.74-3.2-2.71-8.92-3.19-12.81-1.62Z"/>
  <path class="cls-7" d="M106.68,9.5c.15,3.33-.47,1.84-2.26,1.7-1.18-.09-2.38.07-3.54-.03-2.56-.21-5.09-.83-7.71-.57-.77.9-.16,1.95-.16,2.94,0,1.53-.21,3.22-.2,4.73,0,1.88.54,3.94-.12,5.75l11.91-.28v1.96s-11.91,0-11.91,0c-.08.2.3.33.3.42v13.41c0,.1.39.42.3.7,2.13-.65,4.64.05,6.95.02l.34-.58.33.55c.55-.26,1.23.1,1.7.01.23-.04.18-.51.41-.56,1.01-.24,3.19.05,4.38-.01l.33-.55.3.56.44-.56-.29,2.23h-19.35V10.19c0-.09-.41-.4-.3-.7h18.16Z"/>
  <path class="cls-2" d="M83.46,9.5l.3,2.23-13.69-1.12v13.97c3.8.11,7.56-.11,11.31-.56v2.07s-11.3-.12-11.3-.12c-.04.88-.29,1.78-.32,2.66-.13,3.57.4,7.32.32,10.87,0,.29-.32,1.82-.48,1.85l-3.7-.02-.3-31.84h17.86Z"/>
  <polygon class="cls-11" points="204.61 9.5 204.61 39.94 220.09 39.1 219.79 41.33 200.74 41.33 200.44 9.5 204.61 9.5"/>
  <path class="cls-9" d="M104,0c.08.06-.59.85-.73,1-.81.93-4.92,5.03-5.66,5.44-.65.36-1.15.48-1.65-.15l3.27-6.29h4.76Z"/>
  <path class="cls-3" d="M239.05,2.29c3.06-.85,4.56,2.57,1.95,3.79-2.91,1.36-4.45-3.09-1.95-3.79Z"/>
  <path class="cls-6" d="M230.29,5.79c-2.98-2.79,3.84-5.66,3.82-1.45-.01,1.9-2.54,2.65-3.82,1.45Z"/>
</svg>